<?xml version="1.0" encoding="UTF-8" standalone="no" ?>
<!DOCTYPE svg PUBLIC "-//W3C//DTD SVG 1.1//EN" "http://www.w3.org/Graphics/SVG/1.1/DTD/svg11.dtd">
<svg xmlns="http://www.w3.org/2000/svg" xmlns:xlink="http://www.w3.org/1999/xlink" version="1.1" width="1080" height="1080" viewBox="0 0 1080 1080" xml:space="preserve">
<desc>Created with Fabric.js 5.2.4</desc>
<defs>
</defs>
<g transform="matrix(1 0 0 1 540 540)" id="b3e39d60-0db9-4746-879d-b0cd059a42f2"  >
</g>
<g transform="matrix(1 0 0 1 540 540)" id="5eb12bfd-a787-4a57-a6a0-a308650ad32b"  >
<rect style="stroke: none; stroke-width: 1; stroke-dasharray: none; stroke-linecap: butt; stroke-dashoffset: 0; stroke-linejoin: miter; stroke-miterlimit: 4; fill: rgb(255,255,255); fill-rule: nonzero; opacity: 1; visibility: hidden;" vector-effect="non-scaling-stroke"  x="-540" y="-540" rx="0" ry="0" width="1080" height="1080" />
</g>
<g transform="matrix(0 0 0 0 0 0)"  >
<g style=""   >
</g>
</g>
<g transform="matrix(0.81 0 0 0.81 540 540)"  >
<g style="" vector-effect="non-scaling-stroke"   >
		<g transform="matrix(0.13 0 0 -0.13 244.72 -194.84)"  >
<path style="stroke: none; stroke-width: 1; stroke-dasharray: none; stroke-linecap: butt; stroke-dashoffset: 0; stroke-linejoin: miter; stroke-miterlimit: 4; fill: rgb(0,0,0); fill-rule: nonzero; opacity: 1;" vector-effect="non-scaling-stroke"  transform=" translate(-8570.3, -8392.13)" d="M 8563 8845 C 8207 8780 8075 8309 8342 8053 C 8377 8021 8430 7982 8460 7967 C 8536 7931 8649 7917 8759 7930 C 8931 7952 8940 7957 8940 8046 C 8940 8124 8931 8130 8856 8106 C 8820 8095 8768 8090 8694 8090 C 8600 8090 8578 8093 8533 8115 C 8421 8166 8360 8264 8360 8390 C 8360 8513 8413 8604 8514 8653 C 8615 8702 8729 8709 8859 8674 C 8934 8653 8940 8657 8940 8734 C 8940 8793 8937 8801 8915 8816 C 8890 8833 8731 8860 8670 8859 C 8651 8859 8603 8852 8563 8845 z" stroke-linecap="round" />
</g>
		<g transform="matrix(0.13 0 0 -0.13 357.72 -194.52)"  >
<path style="stroke: none; stroke-width: 1; stroke-dasharray: none; stroke-linecap: butt; stroke-dashoffset: 0; stroke-linejoin: miter; stroke-miterlimit: 4; fill: rgb(0,0,0); fill-rule: nonzero; opacity: 1;" vector-effect="non-scaling-stroke"  transform=" translate(-9417.8, -8389.57)" d="M 9340 8849 C 9146 8824 9050 8731 9050 8567 C 9050 8471 9081 8402 9142 8364 C 9198 8328 9231 8321 9380 8315 C 9550 8307 9565 8304 9594 8269 C 9626 8231 9627 8193 9597 8149 C 9550 8077 9434 8056 9255 8085 C 9200 8094 9142 8102 9125 8103 L 9095 8105 L 9092 8043 C 9089 7988 9092 7979 9112 7966 C 9140 7948 9315 7920 9399 7920 C 9485 7920 9603 7945 9658 7975 C 9810 8058 9831 8312 9695 8416 C 9645 8454 9609 8461 9432 8469 C 9247 8477 9233 8483 9223 8557 C 9207 8681 9359 8738 9590 8694 C 9637 8685 9690 8675 9708 8673 L 9740 8668 L 9740 8738 L 9740 8808 L 9693 8823 C 9639 8841 9495 8861 9441 8859 C 9421 8858 9376 8854 9340 8849 z" stroke-linecap="round" />
</g>
		<g transform="matrix(0.13 0 0 -0.13 -604.95 -195.02)"  >
<path style="stroke: none; stroke-width: 1; stroke-dasharray: none; stroke-linecap: butt; stroke-dashoffset: 0; stroke-linejoin: miter; stroke-miterlimit: 4; fill: rgb(0,0,0); fill-rule: nonzero; opacity: 1;" vector-effect="non-scaling-stroke"  transform=" translate(-2199.24, -8393.77)" d="M 1783 8839 C 1773 8829 1770 8725 1770 8388 L 1770 7950 L 1793 7942 C 1805 7938 1928 7937 2065 7940 C 2312 7945 2316 7945 2370 7972 C 2490 8031 2572 8132 2611 8267 C 2672 8482 2569 8714 2370 8812 L 2305 8844 L 2050 8848 C 1852 8851 1792 8849 1783 8839 z M 2315 8669 C 2462 8595 2524 8402 2449 8251 C 2414 8181 2344 8118 2282 8100 C 2260 8093 2179 8090 2085 8092 L 1925 8095 L 1922 8385 C 1920 8652 1921 8676 1937 8689 C 1951 8699 1989 8701 2112 8697 C 2250 8693 2275 8689 2315 8669 z" stroke-linecap="round" />
</g>
		<g transform="matrix(0.13 0 0 -0.13 -485.05 -194.44)"  >
<path style="stroke: none; stroke-width: 1; stroke-dasharray: none; stroke-linecap: butt; stroke-dashoffset: 0; stroke-linejoin: miter; stroke-miterlimit: 4; fill: rgb(0,0,0); fill-rule: nonzero; opacity: 1;" vector-effect="non-scaling-stroke"  transform=" translate(-3099.41, -8389.3)" d="M 3009 8838 C 3000 8831 2963 8753 2926 8665 C 2889 8577 2847 8478 2833 8445 C 2793 8353 2783 8329 2759 8270 C 2747 8240 2727 8193 2715 8165 C 2648 8012 2628 7959 2633 7945 C 2638 7934 2656 7930 2708 7930 C 2791 7930 2794 7933 2840 8050 C 2858 8097 2878 8149 2886 8165 C 2907 8213 3031 8521 3047 8564 C 3079 8654 3098 8662 3125 8598 C 3135 8574 3151 8537 3161 8515 C 3218 8387 3230 8355 3226 8343 C 3222 8334 3197 8330 3141 8330 L 3061 8330 L 3043 8298 C 3016 8248 3000 8196 3008 8188 C 3012 8184 3076 8179 3150 8178 L 3285 8175 L 3345 8055 L 3405 7935 L 3483 7932 C 3545 7930 3561 7932 3566 7945 C 3571 7958 3542 8035 3470 8195 C 3461 8217 3406 8343 3350 8475 C 3294 8607 3244 8720 3240 8725 C 3236 8731 3230 8747 3226 8762 C 3215 8808 3157 8844 3086 8848 C 3045 8850 3020 8847 3009 8838 z" stroke-linecap="round" />
</g>
		<g transform="matrix(0.13 0 0 -0.13 -383.29 -194.48)"  >
<path style="stroke: none; stroke-width: 1; stroke-dasharray: none; stroke-linecap: butt; stroke-dashoffset: 0; stroke-linejoin: miter; stroke-miterlimit: 4; fill: rgb(0,0,0); fill-rule: nonzero; opacity: 1;" vector-effect="non-scaling-stroke"  transform=" translate(-3859.69, -8389.59)" d="M 3523 8843 C 3505 8836 3506 8726 3523 8712 C 3530 8706 3587 8699 3651 8698 L 3765 8695 L 3770 8315 C 3773 8106 3777 7934 3778 7933 C 3779 7931 3813 7930 3854 7930 C 3903 7930 3931 7934 3939 7943 C 3946 7953 3951 8074 3952 8326 L 3955 8695 L 4069 8698 C 4133 8699 4190 8706 4197 8712 C 4213 8725 4214 8822 4198 8838 C 4189 8847 4101 8850 3861 8849 C 3681 8849 3529 8846 3523 8843 z" stroke-linecap="round" />
</g>
		<g transform="matrix(0.13 0 0 -0.13 -282.47 -194.53)"  >
<path style="stroke: none; stroke-width: 1; stroke-dasharray: none; stroke-linecap: butt; stroke-dashoffset: 0; stroke-linejoin: miter; stroke-miterlimit: 4; fill: rgb(0,0,0); fill-rule: nonzero; opacity: 1;" vector-effect="non-scaling-stroke"  transform=" translate(-4618.89, -8389.89)" d="M 4516 8828 C 4508 8815 4479 8749 4450 8680 C 4386 8526 4380 8511 4341 8428 C 4324 8391 4310 8356 4310 8351 C 4310 8343 4282 8277 4240 8185 C 4171 8035 4140 7946 4152 7938 C 4173 7925 4296 7928 4307 7943 C 4312 7949 4336 8002 4359 8060 C 4383 8118 4406 8174 4410 8185 C 4415 8196 4435 8246 4455 8295 C 4476 8345 4512 8432 4536 8490 C 4560 8548 4580 8600 4580 8606 C 4580 8612 4587 8623 4596 8630 C 4608 8641 4613 8641 4624 8629 C 4646 8606 4751 8347 4743 8339 C 4738 8334 4699 8330 4655 8328 L 4575 8325 L 4547 8267 C 4531 8235 4521 8202 4524 8194 C 4528 8183 4557 8180 4663 8180 C 4759 8180 4800 8176 4807 8168 C 4812 8161 4838 8108 4864 8050 C 4891 7992 4917 7942 4924 7938 C 4930 7934 4968 7930 5008 7930 C 5094 7930 5103 7940 5072 8003 C 5061 8026 4979 8214 4891 8420 C 4706 8851 4706 8850 4585 8850 C 4539 8850 4528 8846 4516 8828 z" stroke-linecap="round" />
</g>
		<g transform="matrix(0.13 0 0 -0.13 -140.42 -194.54)"  >
<path style="stroke: none; stroke-width: 1; stroke-dasharray: none; stroke-linecap: butt; stroke-dashoffset: 0; stroke-linejoin: miter; stroke-miterlimit: 4; fill: rgb(0,0,0); fill-rule: nonzero; opacity: 1;" vector-effect="non-scaling-stroke"  transform=" translate(-5684.67, -8390)" d="M 5210 8831 C 5195 8801 5196 7958 5212 7942 C 5219 7935 5249 7930 5280 7930 C 5311 7930 5341 7935 5348 7942 C 5357 7951 5360 8029 5360 8231 C 5360 8384 5364 8511 5368 8514 C 5373 8517 5400 8460 5429 8387 C 5477 8267 5529 8136 5551 8085 C 5555 8074 5569 8040 5581 8010 C 5613 7931 5615 7930 5685 7930 C 5723 7930 5752 7935 5758 7943 C 5763 7949 5785 7998 5805 8050 C 5825 8102 5861 8195 5885 8255 C 5909 8316 5938 8393 5950 8428 C 5963 8462 5977 8490 5981 8490 C 5986 8490 5993 8491 5998 8493 C 6002 8494 6007 8369 6010 8215 L 6015 7935 L 6078 7932 C 6116 7930 6147 7934 6156 7941 C 6168 7950 6170 8025 6170 8386 C 6170 8766 6168 8820 6154 8834 C 6143 8845 6119 8850 6075 8850 C 5995 8850 5988 8843 5936 8718 C 5914 8667 5885 8598 5870 8565 C 5855 8532 5821 8456 5795 8395 C 5735 8256 5719 8219 5710 8200 C 5698 8176 5672 8177 5665 8202 C 5661 8215 5637 8270 5612 8325 C 5558 8446 5522 8525 5505 8565 C 5455 8680 5396 8809 5384 8828 C 5371 8848 5361 8850 5295 8850 C 5232 8850 5219 8847 5210 8831 z" stroke-linecap="round" />
</g>
		<g transform="matrix(0.13 0 0 -0.13 0.49 -194.57)"  >
<path style="stroke: none; stroke-width: 1; stroke-dasharray: none; stroke-linecap: butt; stroke-dashoffset: 0; stroke-linejoin: miter; stroke-miterlimit: 4; fill: rgb(0,0,0); fill-rule: nonzero; opacity: 1;" vector-effect="non-scaling-stroke"  transform=" translate(-6741, -8390.23)" d="M 6644 8831 C 6635 8821 6612 8775 6593 8729 C 6545 8613 6536 8590 6518 8550 C 6509 8531 6448 8388 6382 8233 C 6287 8008 6265 7948 6275 7940 C 6283 7934 6318 7930 6357 7932 L 6425 7935 L 6447 7980 C 6459 8005 6489 8076 6514 8138 C 6539 8199 6580 8298 6604 8358 C 6628 8417 6665 8507 6686 8558 C 6722 8647 6724 8650 6741 8633 C 6764 8609 6872 8352 6865 8340 C 6862 8334 6828 8330 6790 8330 C 6753 8330 6714 8327 6706 8324 C 6688 8317 6654 8249 6648 8210 L 6645 8185 L 6785 8180 L 6925 8175 L 6948 8130 C 6961 8105 6983 8058 6997 8025 C 7035 7935 7041 7930 7125 7930 C 7164 7930 7201 7935 7207 7941 C 7217 7951 7194 8014 7120 8175 C 7110 8197 7081 8265 7054 8325 C 7028 8386 6997 8458 6985 8485 C 6972 8513 6939 8590 6910 8658 C 6881 8725 6849 8792 6838 8805 C 6803 8850 6674 8867 6644 8831 z" stroke-linecap="round" />
</g>
		<g transform="matrix(0.13 0 0 -0.13 101.25 -194.5)"  >
<path style="stroke: none; stroke-width: 1; stroke-dasharray: none; stroke-linecap: butt; stroke-dashoffset: 0; stroke-linejoin: miter; stroke-miterlimit: 4; fill: rgb(0,0,0); fill-rule: nonzero; opacity: 1;" vector-effect="non-scaling-stroke"  transform=" translate(-7493.69, -8389.67)" d="M 7164 8842 C 7146 8830 7141 8744 7157 8720 C 7170 8702 7182 8700 7279 8700 C 7349 8700 7390 8696 7398 8688 C 7407 8679 7410 8581 7410 8309 C 7410 7984 7412 7941 7426 7936 C 7456 7924 7557 7930 7569 7943 C 7576 7953 7581 8074 7582 8326 L 7585 8695 L 7690 8697 C 7845 8701 7840 8698 7840 8774 C 7840 8823 7836 8839 7824 8844 C 7801 8853 7177 8851 7164 8842 z" stroke-linecap="round" />
</g>
		<g transform="matrix(0.13 0 0 -0.13 172.34 -194.89)"  >
<path style="stroke: none; stroke-width: 1; stroke-dasharray: none; stroke-linecap: butt; stroke-dashoffset: 0; stroke-linejoin: miter; stroke-miterlimit: 4; fill: rgb(0,0,0); fill-rule: nonzero; opacity: 1;" vector-effect="non-scaling-stroke"  transform=" translate(-8020.16, -8392.65)" d="M 7945 8838 C 7942 8831 7941 8625 7942 8380 L 7945 7935 L 8020 7935 L 8095 7935 L 8098 8384 C 8100 8737 8098 8835 8088 8842 C 8067 8855 7950 8852 7945 8838 z" stroke-linecap="round" />
</g>
		<g transform="matrix(0.13 0 0 -0.13 79.81 75.57)"  >
<path style="stroke: none; stroke-width: 1; stroke-dasharray: none; stroke-linecap: butt; stroke-dashoffset: 0; stroke-linejoin: miter; stroke-miterlimit: 4; fill: rgb(0,0,0); fill-rule: nonzero; opacity: 1;" vector-effect="non-scaling-stroke"  transform=" translate(-7346.65, -6344.88)" d="M 6456 7565 C 6447 7540 6449 5137 6459 5122 C 6465 5111 6583 5109 7076 5112 C 7638 5115 7689 5117 7735 5134 C 8071 5257 8243 5484 8243 5805 C 8244 5935 8226 6012 8173 6118 C 8133 6199 8036 6305 7957 6354 C 7931 6371 7910 6389 7910 6396 C 7910 6403 7928 6423 7950 6440 C 8032 6505 8096 6610 8131 6735 C 8152 6811 8150 7021 8127 7090 C 8066 7275 7959 7406 7797 7495 C 7649 7576 7675 7573 7034 7577 C 6512 7581 6462 7580 6456 7565 z M 7536 7203 C 7678 7155 7763 7034 7761 6879 C 7760 6784 7736 6718 7676 6653 C 7586 6553 7596 6555 7207 6552 C 6959 6550 6864 6552 6854 6561 C 6843 6570 6840 6627 6840 6877 C 6840 7068 6844 7189 6850 7201 C 6860 7219 6874 7220 7174 7220 C 7439 7220 7494 7217 7536 7203 z M 7559 6189 C 7647 6174 7694 6148 7760 6081 C 7931 5905 7874 5606 7647 5496 C 7607 5477 7584 5475 7243 5472 C 6992 5470 6875 5472 6861 5480 C 6840 5490 6840 5498 6840 5825 C 6840 6147 6841 6161 6860 6180 C 6879 6199 6893 6200 7187 6200 C 7369 6200 7520 6195 7559 6189 z" stroke-linecap="round" />
</g>
		<g transform="matrix(0.13 0 0 -0.13 -537.38 81.6)"  >
<path style="stroke: none; stroke-width: 1; stroke-dasharray: none; stroke-linecap: butt; stroke-dashoffset: 0; stroke-linejoin: miter; stroke-miterlimit: 4; fill: rgb(0,0,0); fill-rule: nonzero; opacity: 1;" vector-effect="non-scaling-stroke"  transform=" translate(-2719, -6299.25)" d="M 1777 7543 C 1764 7531 1769 7285 1782 7272 C 1791 7263 1891 7260 2170 7260 C 2449 7260 2549 7257 2558 7248 C 2567 7239 2570 6982 2570 6153 L 2570 5070 L 2596 5060 C 2630 5047 2826 5047 2851 5060 C 2870 5070 2870 5093 2870 6159 C 2870 7143 2872 7248 2886 7254 C 2895 7257 3069 7260 3275 7260 C 3581 7260 3650 7262 3659 7274 C 3667 7283 3670 7330 3668 7416 L 3665 7545 L 2724 7548 C 2207 7549 1780 7547 1777 7543 z" stroke-linecap="round" />
</g>
		<g transform="matrix(0.13 0 0 -0.13 583.48 91.52)"  >
<path style="stroke: none; stroke-width: 1; stroke-dasharray: none; stroke-linecap: butt; stroke-dashoffset: 0; stroke-linejoin: miter; stroke-miterlimit: 4; fill: rgb(0,0,0); fill-rule: nonzero; opacity: 1;" vector-effect="non-scaling-stroke"  transform=" translate(-11115.94, -6227.78)" d="M 11110 7330 C 11063 7315 10998 7295 10965 7285 C 10932 7276 10899 7267 10893 7264 C 10883 7262 10880 7215 10880 7077 C 10880 6948 10876 6890 10868 6882 C 10860 6874 10810 6870 10709 6870 C 10584 6870 10561 6868 10556 6854 C 10553 6845 10550 6772 10550 6690 C 10550 6584 10554 6540 10563 6532 C 10570 6526 10629 6523 10705 6525 C 10801 6527 10841 6524 10857 6514 L 10879 6500 L 10882 5988 L 10885 5475 L 10916 5395 C 10957 5287 10989 5240 11047 5198 C 11139 5132 11185 5116 11345 5100 C 11446 5090 11668 5098 11677 5113 C 11681 5120 11684 5324 11680 5417 C 11680 5426 11645 5429 11548 5429 C 11475 5429 11400 5434 11381 5439 C 11329 5455 11280 5498 11259 5547 C 11241 5589 11240 5621 11240 6045 C 11240 6437 11242 6499 11255 6510 C 11266 6519 11327 6523 11470 6525 C 11580 6526 11673 6529 11676 6532 C 11680 6537 11683 6743 11680 6853 C 11680 6869 11663 6870 11472 6870 C 11324 6870 11261 6873 11252 6882 C 11243 6891 11240 6959 11240 7127 L 11240 7360 L 11218 7359 C 11205 7358 11157 7345 11110 7330 z" stroke-linecap="round" />
</g>
		<g transform="matrix(0.13 0 0 -0.13 -378.27 124.7)"  >
<path style="stroke: none; stroke-width: 1; stroke-dasharray: none; stroke-linecap: butt; stroke-dashoffset: 0; stroke-linejoin: miter; stroke-miterlimit: 4; fill: rgb(0,0,0); fill-rule: nonzero; opacity: 1;" vector-effect="non-scaling-stroke"  transform=" translate(-3899.09, -5983.9)" d="M 3982 6895 C 3765 6838 3619 6729 3535 6563 C 3483 6458 3480 6414 3480 5714 C 3480 5088 3481 5070 3499 5060 C 3520 5049 3700 5046 3737 5056 L 3759 5062 L 3762 5729 L 3765 6395 L 3789 6440 C 3837 6531 3912 6595 4009 6627 C 4035 6636 4113 6645 4185 6649 L 4315 6655 L 4318 6770 C 4319 6833 4316 6892 4310 6900 C 4303 6911 4275 6915 4188 6917 C 4094 6920 4059 6916 3982 6895 z" stroke-linecap="round" />
</g>
		<g transform="matrix(0.13 0 0 -0.13 359.22 123.69)"  >
<path style="stroke: none; stroke-width: 1; stroke-dasharray: none; stroke-linecap: butt; stroke-dashoffset: 0; stroke-linejoin: miter; stroke-miterlimit: 4; fill: rgb(0,0,0); fill-rule: nonzero; opacity: 1;" vector-effect="non-scaling-stroke"  transform=" translate(-9442.83, -5991.66)" d="M 9325 6914 C 9245 6902 9124 6865 9039 6826 C 8868 6749 8688 6566 8607 6390 C 8558 6282 8552 6265 8535 6165 C 8475 5811 8594 5483 8860 5266 C 9032 5126 9209 5066 9445 5066 C 9644 5066 9779 5100 9922 5186 C 10134 5312 10287 5514 10347 5745 C 10373 5847 10372 6135 10345 6240 C 10322 6331 10251 6478 10202 6540 C 10048 6731 9909 6825 9680 6891 C 9616 6910 9393 6924 9325 6914 z M 9615 6542 C 9770 6494 9920 6357 9969 6219 C 10007 6111 10010 6092 10010 5991 C 10010 5715 9865 5519 9595 5429 C 9538 5410 9357 5412 9295 5432 C 9133 5483 9020 5577 8939 5725 C 8879 5835 8869 6069 8917 6200 C 8976 6358 9115 6489 9277 6540 C 9358 6566 9534 6566 9615 6542 z" stroke-linecap="round" />
</g>
		<g transform="matrix(0.13 0 0 -0.13 -195.09 128.53)"  >
<path style="stroke: none; stroke-width: 1; stroke-dasharray: none; stroke-linecap: butt; stroke-dashoffset: 0; stroke-linejoin: miter; stroke-miterlimit: 4; fill: rgb(0,0,0); fill-rule: nonzero; opacity: 1;" vector-effect="non-scaling-stroke"  transform=" translate(-5280, -5955.24)" d="M 4590 6876 C 4584 6870 4580 6635 4580 6200 C 4580 5571 4581 5531 4599 5467 C 4657 5267 4803 5126 5030 5053 C 5111 5026 5124 5025 5310 5026 C 5513 5026 5604 5039 5785 5091 C 5824 5102 5869 5115 5885 5119 C 5902 5123 5930 5134 5948 5144 L 5980 5161 L 5980 6015 C 5980 6612 5977 6871 5969 6875 C 5955 6884 5725 6884 5711 6875 C 5703 6871 5700 6642 5700 6121 C 5700 5534 5697 5370 5687 5356 C 5680 5347 5639 5330 5595 5318 C 5480 5288 5180 5286 5105 5314 C 4988 5359 4903 5442 4874 5537 C 4863 5574 4860 5708 4860 6219 C 4860 6569 4856 6861 4851 6868 C 4841 6884 4606 6892 4590 6876 z" stroke-linecap="round" />
</g>
</g>
</g>
</svg>