<?xml version="1.0" standalone="no"?>
<!DOCTYPE svg PUBLIC "-//W3C//DTD SVG 20010904//EN"
 "http://www.w3.org/TR/2001/REC-SVG-20010904/DTD/svg10.dtd">
<svg version="1.0" xmlns="http://www.w3.org/2000/svg"
 width="1800.000000pt" height="1080.000000pt" viewBox="0 0 1800.000000 1080.000000"
 preserveAspectRatio="xMidYMid meet">
<metadata>
Created by potrace 1.10, written by Peter Selinger 2001-2011
</metadata>
<g transform="translate(0.000000,1080.000000) scale(0.100000,-0.100000)"
fill="#000000" stroke="none">
<path d="M8563 8845 c-356 -65 -488 -536 -221 -792 35 -32 88 -71 118 -86 76
-36 189 -50 299 -37 172 22 181 27 181 116 0 78 -9 84 -84 60 -36 -11 -88 -16
-162 -16 -94 0 -116 3 -161 25 -112 51 -173 149 -173 275 0 123 53 214 154
263 101 49 215 56 345 21 75 -21 81 -17 81 60 0 59 -3 67 -25 82 -25 17 -184
44 -245 43 -19 0 -67 -7 -107 -14z"/>
<path d="M9340 8849 c-194 -25 -290 -118 -290 -282 0 -96 31 -165 92 -203 56
-36 89 -43 238 -49 170 -8 185 -11 214 -46 32 -38 33 -76 3 -120 -47 -72 -163
-93 -342 -64 -55 9 -113 17 -130 18 l-30 2 -3 -62 c-3 -55 0 -64 20 -77 28
-18 203 -46 287 -46 86 0 204 25 259 55 152 83 173 337 37 441 -50 38 -86 45
-263 53 -185 8 -199 14 -209 88 -16 124 136 181 367 137 47 -9 100 -19 118
-21 l32 -5 0 70 0 70 -47 15 c-54 18 -198 38 -252 36 -20 -1 -65 -5 -101 -10z"/>
<path d="M1783 8839 c-10 -10 -13 -114 -13 -451 l0 -438 23 -8 c12 -4 135 -5
272 -2 247 5 251 5 305 32 120 59 202 160 241 295 61 215 -42 447 -241 545
l-65 32 -255 4 c-198 3 -258 1 -267 -9z m532 -170 c147 -74 209 -267 134 -418
-35 -70 -105 -133 -167 -151 -22 -7 -103 -10 -197 -8 l-160 3 -3 290 c-2 267
-1 291 15 304 14 10 52 12 175 8 138 -4 163 -8 203 -28z"/>
<path d="M3009 8838 c-9 -7 -46 -85 -83 -173 -37 -88 -79 -187 -93 -220 -40
-92 -50 -116 -74 -175 -12 -30 -32 -77 -44 -105 -67 -153 -87 -206 -82 -220 5
-11 23 -15 75 -15 83 0 86 3 132 120 18 47 38 99 46 115 21 48 145 356 161
399 32 90 51 98 78 34 10 -24 26 -61 36 -83 57 -128 69 -160 65 -172 -4 -9
-29 -13 -85 -13 l-80 0 -18 -32 c-27 -50 -43 -102 -35 -110 4 -4 68 -9 142
-10 l135 -3 60 -120 60 -120 78 -3 c62 -2 78 0 83 13 5 13 -24 90 -96 250 -9
22 -64 148 -120 280 -56 132 -106 245 -110 250 -4 6 -10 22 -14 37 -11 46 -69
82 -140 86 -41 2 -66 -1 -77 -10z"/>
<path d="M3523 8843 c-18 -7 -17 -117 0 -131 7 -6 64 -13 128 -14 l114 -3 5
-380 c3 -209 7 -381 8 -382 1 -2 35 -3 76 -3 49 0 77 4 85 13 7 10 12 131 13
383 l3 369 114 3 c64 1 121 8 128 14 16 13 17 110 1 126 -9 9 -97 12 -337 11
-180 0 -332 -3 -338 -6z"/>
<path d="M4516 8828 c-8 -13 -37 -79 -66 -148 -64 -154 -70 -169 -109 -252
-17 -37 -31 -72 -31 -77 0 -8 -28 -74 -70 -166 -69 -150 -100 -239 -88 -247
21 -13 144 -10 155 5 5 6 29 59 52 117 24 58 47 114 51 125 5 11 25 61 45 110
21 50 57 137 81 195 24 58 44 110 44 116 0 6 7 17 16 24 12 11 17 11 28 -1 22
-23 127 -282 119 -290 -5 -5 -44 -9 -88 -11 l-80 -3 -28 -58 c-16 -32 -26 -65
-23 -73 4 -11 33 -14 139 -14 96 0 137 -4 144 -12 5 -7 31 -60 57 -118 27 -58
53 -108 60 -112 6 -4 44 -8 84 -8 86 0 95 10 64 73 -11 23 -93 211 -181 417
-185 431 -185 430 -306 430 -46 0 -57 -4 -69 -22z"/>
<path d="M5210 8831 c-15 -30 -14 -873 2 -889 7 -7 37 -12 68 -12 31 0 61 5
68 12 9 9 12 87 12 289 0 153 4 280 8 283 5 3 32 -54 61 -127 48 -120 100
-251 122 -302 4 -11 18 -45 30 -75 32 -79 34 -80 104 -80 38 0 67 5 73 13 5 6
27 55 47 107 20 52 56 145 80 205 24 61 53 138 65 173 13 34 27 62 31 62 5 0
12 1 17 3 4 1 9 -124 12 -278 l5 -280 63 -3 c38 -2 69 2 78 9 12 9 14 84 14
445 0 380 -2 434 -16 448 -11 11 -35 16 -79 16 -80 0 -87 -7 -139 -132 -22
-51 -51 -120 -66 -153 -15 -33 -49 -109 -75 -170 -60 -139 -76 -176 -85 -195
-12 -24 -38 -23 -45 2 -4 13 -28 68 -53 123 -54 121 -90 200 -107 240 -50 115
-109 244 -121 263 -13 20 -23 22 -89 22 -63 0 -76 -3 -85 -19z"/>
<path d="M6644 8831 c-9 -10 -32 -56 -51 -102 -48 -116 -57 -139 -75 -179 -9
-19 -70 -162 -136 -317 -95 -225 -117 -285 -107 -293 8 -6 43 -10 82 -8 l68 3
22 45 c12 25 42 96 67 158 25 61 66 160 90 220 24 59 61 149 82 200 36 89 38
92 55 75 23 -24 131 -281 124 -293 -3 -6 -37 -10 -75 -10 -37 0 -76 -3 -84 -6
-18 -7 -52 -75 -58 -114 l-3 -25 140 -5 140 -5 23 -45 c13 -25 35 -72 49 -105
38 -90 44 -95 128 -95 39 0 76 5 82 11 10 10 -13 73 -87 234 -10 22 -39 90
-66 150 -26 61 -57 133 -69 160 -13 28 -46 105 -75 173 -29 67 -61 134 -72
147 -35 45 -164 62 -194 26z"/>
<path d="M7164 8842 c-18 -12 -23 -98 -7 -122 13 -18 25 -20 122 -20 70 0 111
-4 119 -12 9 -9 12 -107 12 -379 0 -325 2 -368 16 -373 30 -12 131 -6 143 7 7
10 12 131 13 383 l3 369 105 2 c155 4 150 1 150 77 0 49 -4 65 -16 70 -23 9
-647 7 -660 -2z"/>
<path d="M7945 8838 c-3 -7 -4 -213 -3 -458 l3 -445 75 0 75 0 3 449 c2 353 0
451 -10 458 -21 13 -138 10 -143 -4z"/>
<path d="M6456 7565 c-9 -25 -7 -2428 3 -2443 6 -11 124 -13 617 -10 562 3
613 5 659 22 336 123 508 350 508 671 1 130 -17 207 -70 313 -40 81 -137 187
-216 236 -26 17 -47 35 -47 42 0 7 18 27 40 44 82 65 146 170 181 295 21 76
19 286 -4 355 -61 185 -168 316 -330 405 -148 81 -122 78 -763 82 -522 4 -572
3 -578 -12z m1080 -362 c142 -48 227 -169 225 -324 -1 -95 -25 -161 -85 -226
-90 -100 -80 -98 -469 -101 -248 -2 -343 0 -353 9 -11 9 -14 66 -14 316 0 191
4 312 10 324 10 18 24 19 324 19 265 0 320 -3 362 -17z m23 -1014 c88 -15 135
-41 201 -108 171 -176 114 -475 -113 -585 -40 -19 -63 -21 -404 -24 -251 -2
-368 0 -382 8 -21 10 -21 18 -21 345 0 322 1 336 20 355 19 19 33 20 327 20
182 0 333 -5 372 -11z"/>
<path d="M1777 7543 c-13 -12 -8 -258 5 -271 9 -9 109 -12 388 -12 279 0 379
-3 388 -12 9 -9 12 -266 12 -1095 l0 -1083 26 -10 c34 -13 230 -13 255 0 19
10 19 33 19 1099 0 984 2 1089 16 1095 9 3 183 6 389 6 306 0 375 2 384 14 8
9 11 56 9 142 l-3 129 -941 3 c-517 1 -944 -1 -947 -5z"/>
<path d="M11110 7330 c-47 -15 -112 -35 -145 -45 -33 -9 -66 -18 -72 -21 -10
-2 -13 -49 -13 -187 0 -129 -4 -187 -12 -195 -8 -8 -58 -12 -159 -12 -125 0
-148 -2 -153 -16 -3 -9 -6 -82 -6 -164 0 -106 4 -150 13 -158 7 -6 66 -9 142
-7 96 2 136 -1 152 -11 l22 -14 3 -512 3 -513 31 -80 c41 -108 73 -155 131
-197 92 -66 138 -82 298 -98 101 -10 323 -2 332 13 4 7 7 211 3 304 0 9 -35
12 -132 12 -73 0 -148 5 -167 10 -52 16 -101 59 -122 108 -18 42 -19 74 -19
498 0 392 2 454 15 465 11 9 72 13 215 15 110 1 203 4 206 7 4 5 7 211 4 321
0 16 -17 17 -208 17 -148 0 -211 3 -220 12 -9 9 -12 77 -12 245 l0 233 -22 -1
c-13 -1 -61 -14 -108 -29z"/>
<path d="M3982 6895 c-217 -57 -363 -166 -447 -332 -52 -105 -55 -149 -55
-849 0 -626 1 -644 19 -654 21 -11 201 -14 238 -4 l22 6 3 667 3 666 24 45
c48 91 123 155 220 187 26 9 104 18 176 22 l130 6 3 115 c1 63 -2 122 -8 130
-7 11 -35 15 -122 17 -94 3 -129 -1 -206 -22z"/>
<path d="M9325 6914 c-80 -12 -201 -49 -286 -88 -171 -77 -351 -260 -432 -436
-49 -108 -55 -125 -72 -225 -60 -354 59 -682 325 -899 172 -140 349 -200 585
-200 199 0 334 34 477 120 212 126 365 328 425 559 26 102 25 390 -2 495 -23
91 -94 238 -143 300 -154 191 -293 285 -522 351 -64 19 -287 33 -355 23z m290
-372 c155 -48 305 -185 354 -323 38 -108 41 -127 41 -228 0 -276 -145 -472
-415 -562 -57 -19 -238 -17 -300 3 -162 51 -275 145 -356 293 -60 110 -70 344
-22 475 59 158 198 289 360 340 81 26 257 26 338 2z"/>
<path d="M4590 6876 c-6 -6 -10 -241 -10 -676 0 -629 1 -669 19 -733 58 -200
204 -341 431 -414 81 -27 94 -28 280 -27 203 0 294 13 475 65 39 11 84 24 100
28 17 4 45 15 63 25 l32 17 0 854 c0 597 -3 856 -11 860 -14 9 -244 9 -258 0
-8 -4 -11 -233 -11 -754 0 -587 -3 -751 -13 -765 -7 -9 -48 -26 -92 -38 -115
-30 -415 -32 -490 -4 -117 45 -202 128 -231 223 -11 37 -14 171 -14 682 0 350
-4 642 -9 649 -10 16 -245 24 -261 8z"/>
</g>
</svg>
